# xmcd
#
# Track frame offsets:
#	150
#	56093
#	101019
#	105159
#	157434
#
# Disc length: 2526 seconds
#
# Revision: 1
# Processed by: cddbd v1.4PL0 Copyright (c) Steve Scherf et al.
# Submitted via: audiograbber 1.81.03
#
DISCID=3d09dc05
DTITLE=Mick Taylor - The Great American Music Hall Disc 2
DYEAR=2000
DGENRE=Blues
TTITLE0=Blues In The Morning
TTITLE1=Blind Willie McTell
TTITLE2=Waiting for encore
TTITLE3=Red House
TTITLE4=Can't You Hear Me Knockin'
EXTD=
EXTT0=
EXTT1=
EXTT2=
EXTT3=
EXTT4=
PLAYORDER=
